<svg xmlns="http://www.w3.org/2000/svg" width="900" height="1127.0" viewBox="0 0 900 1127.0">
<style>
  text { font-family: 'TeX Gyre Termes', 'Nimbus Roman', 'Times New Roman', serif; fill: #161616; }
  .lbl  { font-size: 16px; }
  .lbl9 { font-size: 14.5px; }
  .sub  { font-size: 12.5px; fill: #3a3a3a; }
  .note { font-size: 12.5px; fill: #3a3a3a; font-style: italic; }
  .tag  { font-family: 'DejaVu Sans Mono', monospace; font-size: 10.5px; fill: #575757; }
  .band { fill: #f7f7f7; stroke: #e0e0e0; stroke-width: 1; }
  .bandnum   { font-family: 'DejaVu Sans Mono', monospace; font-size: 12.5px; fill: #757575; }
  .bandtitle { font-size: 14px; fill: #464646; }
  rect  { stroke-width: 1.1; }
  .flow  { fill: none; stroke: #8f8f8f; stroke-width: 1.3; }
  .spine { fill: none; stroke: #8f8f8f; stroke-width: 1.9; }
  .ico   { fill: none; stroke: #161616; stroke-width: 1.25; }
  .failmark { fill: #ffffff; stroke: #ac2e22; stroke-width: 1.6; }
  .failtxt  { font-family: 'DejaVu Sans Mono', monospace; font-size: 10.5px; fill: #ac2e22; }
</style>
<defs><marker id="ah" viewBox="0 0 10 10" refX="9" refY="5" markerWidth="6" markerHeight="6" orient="auto-start-reverse"><path d="M 0 0 L 10 5 L 0 10 z" fill="#8f8f8f"/></marker></defs>
<rect width="900" height="1127.0" fill="#ffffff"/>
<rect class="band" x="16" y="46.0" width="868" height="72" rx="7"/>
<text class="bandnum" x="32" y="67.0">1</text>
<text class="bandtitle" x="46" y="67.0">Sample intake</text>
<rect x="300" y="76.0" width="300" height="42" rx="5" fill="#e7ebef" stroke="#78868f"/>
<text class="lbl" x="450" y="94.0" text-anchor="middle">Windows PE sample</text>
<text class="sub" x="450" y="110.0" text-anchor="middle">resolved by SHA-256 to a family signature</text>
<rect x="24" y="76.0" width="256" height="42" rx="5" fill="#e7ebef" stroke="#78868f" stroke-dasharray="5 3"/>
<text class="lbl9" x="152" y="94.0" text-anchor="middle">dated cohort</text>
<text class="sub" x="152" y="110.0" text-anchor="middle">stratified by year, digest recorded</text>
<rect x="620" y="76.0" width="256" height="42" rx="5" fill="#e7ebef" stroke="#78868f" stroke-dasharray="5 3"/>
<text class="lbl9" x="748" y="94.0" text-anchor="middle">MITRE ATT&amp;CK uses set</text>
<text class="sub" x="748" y="110.0" text-anchor="middle">ground truth, scoring only</text>
<rect class="band" x="16" y="127.0" width="868" height="154" rx="7"/>
<text class="bandnum" x="32" y="148.0">2</text>
<text class="bandtitle" x="46" y="148.0">Evidence acquisition, over three protocols</text>
<rect x="36" y="153.0" width="174" height="122" rx="5" fill="#ebe9f3" stroke="#867ea6"/>
<g class="ico" transform="translate(47,163.0)"><rect x="0" y="0" width="15" height="11" rx="1.5"/><path d="M-4 3 h4 M-4 8 h4 M15 3 h4 M15 8 h4"/></g>
<text class="lbl9" x="123" y="174.0" text-anchor="middle">Ghidra MCP</text>
<text class="tag" x="123" y="189.0" text-anchor="middle">HTTP</text>
<text class="sub" x="123" y="207.0" text-anchor="middle">headless disassembly</text>
<text class="sub" x="123" y="220.0" text-anchor="middle">decompile, imports, strings,</text>
<text class="sub" x="123" y="233.0" text-anchor="middle">call graph, function hashes</text>
<text class="sub" x="123" y="246.0" text-anchor="middle">165 tools advertised, 20 exposed</text>
<rect x="254" y="153.0" width="174" height="122" rx="5" fill="#ebe9f3" stroke="#867ea6"/>
<g class="ico" transform="translate(265,163.0)"><rect x="0" y="0" width="17" height="11" rx="1.5"/><path d="M6 3 l5 2.5 l-5 2.5 z"/></g>
<text class="lbl9" x="341" y="174.0" text-anchor="middle">CAPEv2 sandbox</text>
<text class="tag" x="341" y="189.0" text-anchor="middle">MCP</text>
<text class="sub" x="341" y="207.0" text-anchor="middle">detonation on one Windows guest</text>
<text class="sub" x="341" y="220.0" text-anchor="middle">reverted between analyses</text>
<text class="sub" x="341" y="233.0" text-anchor="middle">behavioural JSON, dropped files,</text>
<text class="sub" x="341" y="246.0" text-anchor="middle">PCAP capture</text>
<rect x="472" y="153.0" width="174" height="122" rx="5" fill="#ebe9f3" stroke="#867ea6"/>
<g class="ico" transform="translate(483,163.0)"><path d="M0 8 q4 -8 8 0 t8 0"/><path d="M0 3.5 q4 -6.5 8 0 t8 0" opacity="0.45"/></g>
<text class="lbl9" x="559" y="174.0" text-anchor="middle">Network MCP</text>
<text class="tag" x="559" y="189.0" text-anchor="middle">MCP</text>
<text class="sub" x="559" y="207.0" text-anchor="middle">local PCAP inspection</text>
<text class="sub" x="559" y="220.0" text-anchor="middle">pcap summary, DNS, HTTP</text>
<text class="sub" x="559" y="233.0" text-anchor="middle">no traffic leaves the host</text>
<rect x="690" y="153.0" width="174" height="122" rx="5" fill="#ebe9f3" stroke="#867ea6"/>
<g class="ico" transform="translate(701,163.0)"><path d="M8 0 l8 3 v4.5 q0 4.5 -8 6.5 q-8 -2 -8 -6.5 v-4.5 z"/></g>
<text class="lbl9" x="777" y="174.0" text-anchor="middle">threat-intel MCP</text>
<text class="tag" x="777" y="189.0" text-anchor="middle">HTTP</text>
<text class="sub" x="777" y="207.0" text-anchor="middle">VirusTotal, AbuseIPDB, WHOIS</text>
<text class="sub" x="777" y="220.0" text-anchor="middle">enrichment only, never scored</text>
<text class="sub" x="777" y="233.0" text-anchor="middle">reputation and registration</text>
<circle class="failmark" cx="196" cy="165.0" r="11.5"/>
<text class="failtxt" x="196" y="169.0" text-anchor="middle">M2</text>
<circle class="failmark" cx="196" cy="191.0" r="11.5"/>
<text class="failtxt" x="196" y="195.0" text-anchor="middle">M3</text>
<circle class="failmark" cx="414" cy="165.0" r="11.5"/>
<text class="failtxt" x="414" y="169.0" text-anchor="middle">M1</text>
<rect class="band" x="16" y="290.0" width="868" height="92" rx="7"/>
<text class="bandnum" x="32" y="311.0">3</text>
<text class="bandtitle" x="46" y="311.0">Deterministic evidence layers, Layer 0, no model involved</text>
<rect x="36" y="318.0" width="128" height="58" rx="5" fill="#e7ebef" stroke="#78868f"/>
<text class="lbl9" x="100" y="336.0" text-anchor="middle">YARA</text>
<text class="tag" x="100" y="351.0" text-anchor="middle">trust 0.90</text>
<text class="sub" x="100" y="367.0" text-anchor="middle">signature match</text>
<rect x="176" y="318.0" width="128" height="58" rx="5" fill="#e7ebef" stroke="#78868f"/>
<text class="lbl9" x="240" y="336.0" text-anchor="middle">tool-artifact</text>
<text class="tag" x="240" y="351.0" text-anchor="middle">trust 0.90</text>
<text class="sub" x="240" y="367.0" text-anchor="middle">RAT byte markers</text>
<rect x="316" y="318.0" width="128" height="58" rx="5" fill="#e7ebef" stroke="#78868f"/>
<text class="lbl9" x="380" y="336.0" text-anchor="middle">Sigma</text>
<text class="tag" x="380" y="351.0" text-anchor="middle">trust 0.55</text>
<text class="sub" x="380" y="367.0" text-anchor="middle">log rules</text>
<rect x="456" y="318.0" width="128" height="58" rx="5" fill="#e7ebef" stroke="#78868f"/>
<text class="lbl9" x="520" y="336.0" text-anchor="middle">import-capability</text>
<text class="tag" x="520" y="351.0" text-anchor="middle">trust 0.35</text>
<text class="sub" x="520" y="367.0" text-anchor="middle">PE import sets</text>
<rect x="596" y="318.0" width="128" height="58" rx="5" fill="#e7ebef" stroke="#78868f"/>
<text class="lbl9" x="660" y="336.0" text-anchor="middle">LOLBin</text>
<text class="tag" x="660" y="351.0" text-anchor="middle">trust 0.35</text>
<text class="sub" x="660" y="367.0" text-anchor="middle">signed-proxy exec</text>
<rect x="736" y="318.0" width="128" height="58" rx="5" fill="#e7ebef" stroke="#78868f"/>
<text class="lbl9" x="800" y="336.0" text-anchor="middle">network DGA</text>
<text class="tag" x="800" y="351.0" text-anchor="middle">trust 0.20</text>
<text class="sub" x="800" y="367.0" text-anchor="middle">domain entropy</text>
<rect class="band" x="16" y="391.0" width="868" height="92" rx="7"/>
<text class="bandnum" x="32" y="412.0">4</text>
<text class="bandtitle" x="46" y="412.0">Retrieval and priors</text>
<text class="tag" x="190" y="412.0" text-anchor="start">Qdrant, BAAI/bge-small-en-v1.5, 384-dim</text>
<text class="tag" x="868" y="412.0" text-anchor="end">into every analyst prompt</text>
<rect x="36" y="419.0" width="168" height="58" rx="5" fill="#e5eee8" stroke="#749682"/>
<text class="lbl9" x="120" y="437.0" text-anchor="middle">ATT&amp;CK case-prior RAG</text>
<text class="sub" x="120" y="453.0" text-anchor="middle">nearest past cases</text>
<text class="sub" x="120" y="466.0" text-anchor="middle">prime the mapping</text>
<rect x="256" y="419.0" width="168" height="58" rx="5" fill="#e5eee8" stroke="#749682"/>
<text class="lbl9" x="340" y="437.0" text-anchor="middle">family-feature RAG</text>
<text class="sub" x="340" y="453.0" text-anchor="middle">family fingerprints</text>
<text class="sub" x="340" y="466.0" text-anchor="middle">leakage-free split</text>
<rect x="476" y="419.0" width="168" height="58" rx="5" fill="#e5eee8" stroke="#749682"/>
<text class="lbl9" x="560" y="437.0" text-anchor="middle">function-hash attribution</text>
<text class="sub" x="560" y="453.0" text-anchor="middle">normalised opcode hashes</text>
<text class="sub" x="560" y="466.0" text-anchor="middle">matched to a corpus</text>
<rect x="696" y="419.0" width="168" height="58" rx="5" fill="#e5eee8" stroke="#749682"/>
<text class="lbl9" x="780" y="437.0" text-anchor="middle">hybrid ATT&amp;CK index</text>
<text class="sub" x="780" y="453.0" text-anchor="middle">dense ranks, TF-IDF gates</text>
<text class="sub" x="780" y="466.0" text-anchor="middle">assigns every identifier</text>
<rect class="band" x="16" y="492.0" width="868" height="214" rx="7"/>
<text class="bandnum" x="32" y="513.0">5</text>
<text class="bandtitle" x="46" y="513.0">Analysis graph, LangGraph StateGraph over one shared state</text>
<rect x="52" y="520.0" width="232" height="86" rx="5" fill="#f7ecdf" stroke="#b8874f"/>
<text class="lbl" x="168" y="539.0" text-anchor="middle">static analyst</text>
<text class="tag" x="168" y="554.0" text-anchor="middle">domain weight 0.35</text>
<text class="sub" x="168" y="571.0" text-anchor="middle">ReAct loop over Ghidra MCP</text>
<text class="sub" x="168" y="584.0" text-anchor="middle">20-tool curated allowlist</text>
<text class="sub" x="168" y="597.0" text-anchor="middle">sink-reachability hint injected</text>
<rect x="322" y="520.0" width="232" height="86" rx="5" fill="#f7ecdf" stroke="#b8874f"/>
<text class="lbl" x="438" y="539.0" text-anchor="middle">dynamic analyst</text>
<text class="tag" x="438" y="554.0" text-anchor="middle">domain weight 0.45</text>
<text class="sub" x="438" y="571.0" text-anchor="middle">ReAct loop over the sandbox</text>
<text class="sub" x="438" y="584.0" text-anchor="middle">API calls, injection chains,</text>
<text class="sub" x="438" y="597.0" text-anchor="middle">persistence</text>
<rect x="592" y="520.0" width="232" height="86" rx="5" fill="#f7ecdf" stroke="#b8874f"/>
<text class="lbl" x="708" y="539.0" text-anchor="middle">network analyst</text>
<text class="tag" x="708" y="554.0" text-anchor="middle">domain weight 0.20</text>
<text class="sub" x="708" y="571.0" text-anchor="middle">PCAP or parsed-flow text</text>
<text class="sub" x="708" y="584.0" text-anchor="middle">beaconing, DGA, tunnelling</text>
<circle class="failmark" cx="270" cy="532.0" r="11.5"/>
<text class="failtxt" x="270" y="536.0" text-anchor="middle">M4</text>
<path class="flow" d="M 284 563.0 L 320 563.0" marker-end="url(#ah)"/>
<path class="flow" d="M 554 563.0 L 590 563.0" marker-end="url(#ah)"/>
<text class="tag" x="302" y="555.0" text-anchor="middle">then</text>
<text class="tag" x="572" y="555.0" text-anchor="middle">then</text>
<text class="note" x="450" y="622.0" text-anchor="middle">sequential on one local slot; fan-out from START when the endpoint is multi-slot</text>
<rect x="232" y="636.0" width="200" height="44" rx="5" fill="#f7ecdf" stroke="#b8874f"/>
<text class="lbl" x="332" y="654.0" text-anchor="middle">negotiation</text>
<text class="sub" x="332" y="670.0" text-anchor="middle">contradictions, dissent, consensus</text>
<rect x="482" y="636.0" width="200" height="44" rx="5" fill="#f7ecdf" stroke="#b8874f"/>
<text class="lbl" x="582" y="654.0" text-anchor="middle">revision</text>
<text class="sub" x="582" y="670.0" text-anchor="middle">re-run an analyst on the dispute</text>
<path class="flow" d="M 332 608.0 L 332 634.0" marker-end="url(#ah)"/>
<path class="flow" d="M 432 652.0 H 480" marker-end="url(#ah)"/>
<text class="tag" x="456" y="642.0" text-anchor="middle">no consensus</text>
<path class="flow" d="M 582 680.0 V 697.0 H 352 V 682.0" marker-end="url(#ah)"/>
<text class="tag" x="467" y="693.0" text-anchor="middle">loop until consensus or the cap</text>
<rect x="700" y="636.0" width="164" height="44" rx="5" fill="#e7ebef" stroke="#78868f" stroke-dasharray="5 3"/>
<text class="lbl9" x="782" y="654.0" text-anchor="middle">sycophancy detector</text>
<text class="sub" x="782" y="670.0" text-anchor="middle">an echo of a peer, flagged</text>
<rect class="band" x="16" y="715.0" width="868" height="80" rx="7"/>
<text class="bandnum" x="32" y="736.0">6</text>
<text class="bandtitle" x="46" y="736.0">Corroboration cascade, deterministic</text>
<rect x="150" y="743.0" width="600" height="46" rx="5" fill="#e7ebef" stroke="#78868f"/>
<text class="lbl" x="450" y="761.0" text-anchor="middle">per-technique weighted confidence over contributing layers</text>
<text class="sub" x="450" y="778.0" text-anchor="middle">cross-layer multiplier 1.00, 1.25, 1.50, 1.75, 1.90 at 1 to 5 independent layers</text>
<circle class="failmark" cx="736" cy="755.0" r="11.5"/>
<text class="failtxt" x="736" y="759.0" text-anchor="middle">M5</text>
<rect class="band" x="16" y="804.0" width="868" height="76" rx="7"/>
<text class="bandnum" x="32" y="825.0">7</text>
<text class="bandtitle" x="46" y="825.0">Verdict</text>
<rect x="230" y="830.0" width="440" height="42" rx="5" fill="#f7ecdf" stroke="#b8874f"/>
<text class="lbl" x="450" y="848.0" text-anchor="middle">judge, give_verdict</text>
<text class="sub" x="450" y="864.0" text-anchor="middle">synthesises the analysts' claims and the cascade block into STIX 2.1</text>
<circle class="failmark" cx="656" cy="842.0" r="11.5"/>
<text class="failtxt" x="656" y="846.0" text-anchor="middle">M7</text>
<rect class="band" x="16" y="889.0" width="868" height="94" rx="7"/>
<text class="bandnum" x="32" y="910.0">8</text>
<text class="bandtitle" x="46" y="910.0">Deterministic reconciliation and gating, after the model, and the artefact</text>
<rect x="36.0" y="917.0" width="138.0" height="58" rx="5" fill="#e7ebef" stroke="#78868f"/>
<text class="lbl9" x="105.0" y="935.0" text-anchor="middle">reconciliation step</text>
<text class="sub" x="105.0" y="951.0" text-anchor="middle">drops unresolvable IDs,</text>
<text class="sub" x="105.0" y="964.0" text-anchor="middle">restores cascade techniques</text>
<rect x="180.4" y="917.0" width="138.0" height="58" rx="5" fill="#e7ebef" stroke="#78868f"/>
<text class="lbl9" x="249.4" y="935.0" text-anchor="middle">invalid-ID filter</text>
<text class="sub" x="249.4" y="951.0" text-anchor="middle">checked against</text>
<text class="sub" x="249.4" y="964.0" text-anchor="middle">the ATT&amp;CK catalogue</text>
<rect x="324.8" y="917.0" width="138.0" height="58" rx="5" fill="#e7ebef" stroke="#78868f"/>
<text class="lbl9" x="393.8" y="935.0" text-anchor="middle">confidence cap</text>
<text class="sub" x="393.8" y="951.0" text-anchor="middle">falsification before</text>
<text class="sub" x="393.8" y="964.0" text-anchor="middle">confidence</text>
<rect x="469.20000000000005" y="917.0" width="138.0" height="58" rx="5" fill="#e7ebef" stroke="#78868f"/>
<text class="lbl9" x="538.2" y="935.0" text-anchor="middle">STIX integrity pass</text>
<text class="sub" x="538.2" y="951.0" text-anchor="middle">dangling references,</text>
<text class="sub" x="538.2" y="964.0" text-anchor="middle">malformed objects</text>
<rect x="613.6" y="917.0" width="138.0" height="58" rx="5" fill="#e7ebef" stroke="#78868f"/>
<text class="lbl9" x="682.6" y="935.0" text-anchor="middle">STIX 2.1 bundle</text>
<text class="sub" x="682.6" y="951.0" text-anchor="middle">attack-patterns and</text>
<text class="sub" x="682.6" y="964.0" text-anchor="middle">relationships</text>
<rect x="758.0" y="917.0" width="138.0" height="58" rx="5" fill="#e7ebef" stroke="#78868f"/>
<text class="lbl9" x="827.0" y="935.0" text-anchor="middle">report</text>
<text class="sub" x="827.0" y="951.0" text-anchor="middle">HTML, Markdown and</text>
<text class="sub" x="827.0" y="964.0" text-anchor="middle">PDF renderers</text>
<rect class="band" x="16" y="992.0" width="868" height="90" rx="7"/>
<text class="bandnum" x="32" y="1013.0">9</text>
<text class="bandtitle" x="46" y="1013.0">Substrate</text>
<rect x="36" y="1018.0" width="400" height="56" rx="5" fill="#ebe9f3" stroke="#867ea6"/>
<text class="lbl" x="236" y="1036.0" text-anchor="middle">local inference</text>
<text class="sub" x="236" y="1052.0" text-anchor="middle">ik_llama.cpp llama-server, Qwen3.6-35B-A3B at IQ3_K_R4</text>
<text class="sub" x="236" y="1065.0" text-anchor="middle">one RTX 5060, hybrid MoE offload, 131,072-token context</text>
<circle class="failmark" cx="422" cy="1030.0" r="11.5"/>
<text class="failtxt" x="422" y="1034.0" text-anchor="middle">M6</text>
<rect x="464" y="1018.0" width="400" height="56" rx="5" fill="#ebe9f3" stroke="#867ea6" stroke-dasharray="5 3"/>
<text class="lbl" x="664" y="1036.0" text-anchor="middle">hosted comparison endpoints</text>
<text class="sub" x="664" y="1052.0" text-anchor="middle">OpenRouter and DashScope, used only for the measured arms;</text>
<text class="sub" x="664" y="1065.0" text-anchor="middle">never in the production path</text>
<path class="spine" d="M 450 118.0 L 450 127.0" marker-end="url(#ah)"/>
<path class="spine" d="M 450 281.0 L 450 290.0" marker-end="url(#ah)"/>
<path class="spine" d="M 450 382.0 L 450 391.0" marker-end="url(#ah)"/>
<path class="spine" d="M 450 483.0 L 450 492.0" marker-end="url(#ah)"/>
<path class="spine" d="M 450 706.0 L 450 715.0" marker-end="url(#ah)"/>
<path class="spine" d="M 450 795.0 L 450 804.0" marker-end="url(#ah)"/>
<path class="spine" d="M 450 880.0 L 450 889.0" marker-end="url(#ah)"/>
<path class="spine" d="M 450 983.0 L 450 992.0" marker-end="url(#ah)"/>
<path class="flow" d="M 150 483.0 L 150 492.0" marker-end="url(#ah)"/>
<path class="flow" d="M 750 483.0 L 750 492.0" marker-end="url(#ah)"/>
<rect class="band" x="16" y="1081.0" width="868" height="34" rx="7"/>
<rect x="36" y="1091.0" width="16" height="11" rx="2" fill="#e7ebef" stroke="#78868f"/>
<text class="sub" x="59" y="1101.0" text-anchor="start">deterministic</text>
<rect x="206" y="1091.0" width="16" height="11" rx="2" fill="#f7ecdf" stroke="#b8874f"/>
<text class="sub" x="229" y="1101.0" text-anchor="start">language model</text>
<rect x="386" y="1091.0" width="16" height="11" rx="2" fill="#ebe9f3" stroke="#867ea6"/>
<text class="sub" x="409" y="1101.0" text-anchor="start">another server</text>
<rect x="566" y="1091.0" width="16" height="11" rx="2" fill="#e5eee8" stroke="#749682"/>
<text class="sub" x="589" y="1101.0" text-anchor="start">retrieval store</text>
<circle class="failmark" cx="722" cy="1097.0" r="11.5"/>
<text class="failtxt" x="722" y="1101.0" text-anchor="middle">Mn</text>
<text class="sub" x="740" y="1101.0" text-anchor="start">instrument failure</text>
</svg>
